<?xml version="1.0" encoding="utf-8"?>
<!-- Generator: Adobe Illustrator 23.0.3, SVG Export Plug-In . SVG Version: 6.00 Build 0)  -->
<svg version="1.1" id="Layer_1" xmlns="http://www.w3.org/2000/svg" xmlns:xlink="http://www.w3.org/1999/xlink" x="0px" y="0px"
	 viewBox="0 0 300 300" style="enable-background:new 0 0 300 300;" xml:space="preserve">
<style type="text/css">
	.st0{fill:#4B4E57;}
</style>
<g>
	<path class="st0" d="M221.17,96.16c-1.66-4.26-3.63-7.3-6.83-10.5c-3.19-3.19-6.24-5.17-10.5-6.83c-3.22-1.25-8.05-2.74-16.95-3.14
		c-9.63-0.44-12.51-0.53-36.89-0.53s-27.26,0.09-36.89,0.53c-8.9,0.41-13.74,1.89-16.95,3.14c-4.26,1.66-7.3,3.63-10.5,6.83
		c-3.19,3.19-5.17,6.24-6.83,10.5c-1.25,3.22-2.74,8.05-3.14,16.95c-0.44,9.63-0.53,12.51-0.53,36.89s0.09,27.26,0.53,36.89
		c0.41,8.9,1.89,13.74,3.14,16.95c1.66,4.26,3.63,7.3,6.83,10.5c3.19,3.19,6.24,5.17,10.5,6.83c3.22,1.25,8.05,2.74,16.95,3.14
		c9.63,0.44,12.51,0.53,36.89,0.53c24.38,0,27.27-0.09,36.89-0.53c8.9-0.41,13.74-1.89,16.95-3.14c4.26-1.66,7.3-3.63,10.5-6.83
		c3.19-3.19,5.17-6.24,6.83-10.5c1.25-3.22,2.74-8.05,3.14-16.95c0.44-9.63,0.53-12.51,0.53-36.89s-0.09-27.26-0.53-36.89
		C223.91,104.21,222.42,99.37,221.17,96.16z M150,196.88c-25.89,0-46.88-20.99-46.88-46.88c0-25.89,20.99-46.88,46.88-46.88
		c25.89,0,46.88,20.99,46.88,46.88C196.88,175.89,175.89,196.88,150,196.88z M198.73,112.22c-6.05,0-10.96-4.9-10.96-10.96
		c0-6.05,4.9-10.96,10.96-10.96c6.05,0,10.96,4.9,10.96,10.96C209.69,107.32,204.78,112.22,198.73,112.22z"/>
	
		<ellipse transform="matrix(0.9732 -0.2298 0.2298 0.9732 -30.4503 38.4755)" class="st0" cx="150" cy="150" rx="30.43" ry="30.43"/>
	<path class="st0" d="M150,5C69.92,5,5,69.92,5,150s64.92,145,145,145s145-64.92,145-145S230.08,5,150,5z M240.75,187.64
		c-0.44,9.72-1.99,16.35-4.24,22.16c-2.33,6-5.45,11.09-10.53,16.17c-5.08,5.08-10.17,8.2-16.17,10.53
		c-5.81,2.26-12.44,3.8-22.16,4.24c-9.74,0.44-12.85,0.55-37.64,0.55c-24.79,0-27.9-0.11-37.64-0.55
		c-9.72-0.44-16.35-1.99-22.16-4.24c-6-2.33-11.09-5.45-16.17-10.53c-5.08-5.08-8.2-10.17-10.53-16.17
		c-2.26-5.81-3.8-12.44-4.24-22.16c-0.44-9.74-0.55-12.85-0.55-37.64c0-24.79,0.11-27.9,0.55-37.64C59.7,102.64,61.24,96,63.5,90.2
		c2.33-6,5.45-11.09,10.53-16.17c5.08-5.08,10.17-8.2,16.17-10.53c5.81-2.26,12.44-3.8,22.16-4.24c9.74-0.44,12.85-0.55,37.64-0.55
		c24.79,0,27.9,0.11,37.64,0.55c9.72,0.44,16.35,1.99,22.16,4.24c6,2.33,11.09,5.45,16.17,10.53c5.08,5.08,8.2,10.17,10.53,16.17
		c2.26,5.81,3.8,12.44,4.24,22.16c0.44,9.74,0.55,12.85,0.55,37.64S241.19,177.9,240.75,187.64z"/>
</g>
</svg>
