<?xml version="1.0" encoding="utf-8"?>
<!-- Generator: Adobe Illustrator 23.0.3, SVG Export Plug-In . SVG Version: 6.00 Build 0)  -->
<svg version="1.1" id="Layer_1" xmlns="http://www.w3.org/2000/svg" xmlns:xlink="http://www.w3.org/1999/xlink" x="0px" y="0px"
	 viewBox="0 0 300 300" style="enable-background:new 0 0 300 300;" xml:space="preserve">
<style type="text/css">
	.st0{fill:#4B4E57;}
</style>
<path class="st0" d="M150,5C69.92,5,5,69.92,5,150s64.92,145,145,145c80.08,0,145-64.92,145-145S230.08,5,150,5z M102.14,229.23
	c-10.31-0.11-20.63-0.09-30.95-0.02c-1.65,0.01-2.15-0.4-2.15-2.11c0.05-36.76,0.05-73.52,0.01-110.28c0-1.52,0.37-2.06,1.98-2.05
	c10.46,0.07,20.93,0.09,31.39-0.01c2.01-0.02,2.28,0.76,2.28,2.48c-0.05,18.3-0.03,36.61-0.03,54.91c0,18.16-0.03,36.31,0.04,54.47
	C104.73,228.64,104.23,229.25,102.14,229.23z M86.91,99.03c-11.23,0-20.56-9.29-20.59-20.51c-0.04-11.35,9.29-20.69,20.64-20.68
	c11.27,0.01,20.56,9.27,20.57,20.5C107.54,89.74,98.28,99.03,86.91,99.03z M238.15,226.87c0,1.88-0.52,2.37-2.37,2.35
	c-10.32-0.09-20.64-0.09-30.96,0c-1.82,0.02-2.21-0.55-2.2-2.26c0.06-19.06,0.07-38.12,0.01-57.18c-0.02-4.78-0.32-9.55-1.66-14.19
	c-2.47-8.55-8.59-12.91-17.55-12.44c-12.24,0.65-18.6,6.71-20.16,19.15c-0.37,2.97-0.55,5.95-0.55,8.94
	c0.02,18.54-0.02,37.07,0.05,55.61c0.01,1.85-0.46,2.39-2.34,2.38c-10.39-0.09-20.79-0.08-31.18-0.01
	c-1.67,0.01-2.15-0.44-2.15-2.12c0.05-36.7,0.05-73.4,0-110.1c0-1.82,0.59-2.24,2.31-2.22c9.87,0.07,19.74,0.08,29.61-0.01
	c1.82-0.02,2.29,0.57,2.25,2.29c-0.1,4.38-0.03,8.77-0.03,13.16c2.38-2.68,4.34-5.39,6.79-7.7c7.52-7.09,16.41-10.66,26.8-10.57
	c5.71,0.05,11.35,0.46,16.85,2.05c12.59,3.64,19.9,12.3,23.39,24.6c2.62,9.22,3.1,18.69,3.11,28.18
	C238.2,186.81,238.1,206.84,238.15,226.87z"/>
</svg>
