<?xml version="1.0" encoding="utf-8"?>
<!-- Generator: Adobe Illustrator 23.0.3, SVG Export Plug-In . SVG Version: 6.00 Build 0)  -->
<svg version="1.1" id="Layer_1" xmlns="http://www.w3.org/2000/svg" xmlns:xlink="http://www.w3.org/1999/xlink" x="0px" y="0px"
	 viewBox="0 0 500 360" style="enable-background:new 0 0 500 360;" xml:space="preserve">
<style type="text/css">
	.st0{fill:#FFFFFF;}
</style>
<g>
	<path class="st0" d="M500.8,184.2c-4.3,12.2-13.1,16.6-25.9,16.6c-149.4-0.2-298.8-0.2-448.1,0c-12.8,0-21.6-4.4-25.9-16.6
		c0-2.9,0-5.8,0-8.8c4.4-12.5,13.6-16.6,26.5-16.6c149,0.2,298,0.2,447,0c12.9,0,22,4.1,26.5,16.6
		C500.8,178.3,500.8,181.3,500.8,184.2z"/>
	<path class="st0" d="M0.8,15.8C3.2,12.3,5,7.9,8.1,5.3s7.7-3.8,11.8-5.1C22-0.4,24.4,0,26.7,0C175.8,0,324.9,0.1,474-0.2
		c12.9,0,22,3.8,26.9,16c0,3.2,0,6.5,0,9.7c-2.3,3.5-3.9,7.8-7,10.2c-3.5,2.7-8.3,4-12.6,5.5c-1.9,0.6-4.2,0.2-6.3,0.2
		c-149.1,0-298.2-0.1-447.2,0.2c-12.9,0.1-22.1-3.7-26.9-16C0.8,22.3,0.8,19.1,0.8,15.8z"/>
	<path class="st0" d="M500.8,343.8c-0.5,1-1.1,1.9-1.5,2.9c-3.5,7.8-9.4,12.2-18,12.9c-1.8,0.1-3.6,0.2-5.4,0.2
		c-150.1,0-300.2,0-450.4,0.1c-12,0-20.4-4.3-24.4-15.8c0-0.1-0.3-0.2-0.4-0.3c0-2.9,0-5.8,0-8.8c4.1-12.4,12.8-16.8,25.7-16.8
		c149.5,0.2,299.1,0.2,448.6,0c12.9,0,21.6,4.4,25.7,16.8C500.8,337.9,500.8,340.8,500.8,343.8z"/>
</g>
</svg>
