<?xml version="1.0" encoding="utf-8"?>
<!-- Generator: Adobe Illustrator 23.0.3, SVG Export Plug-In . SVG Version: 6.00 Build 0)  -->
<svg version="1.1" id="Layer_1" xmlns="http://www.w3.org/2000/svg" xmlns:xlink="http://www.w3.org/1999/xlink" x="0px" y="0px"
	 viewBox="0 0 300 300" style="enable-background:new 0 0 300 300;" xml:space="preserve">
<style type="text/css">
	.st0{fill:#4B4E57;}
</style>
<g>
	<polygon class="st0" points="130.67,179 180.89,150 130.67,121 	"/>
	<path class="st0" d="M150,5C69.92,5,5,69.92,5,150s64.92,145,145,145s145-64.92,145-145S230.08,5,150,5z M242.63,196.53
		c-2.22,8.32-8.77,14.87-17.09,17.09c-15.08,4.04-75.53,4.04-75.53,4.04s-60.46,0-75.53-4.04c-8.32-2.22-14.87-8.77-17.09-17.09
		C53.33,181.46,53.33,150,53.33,150s0-31.46,4.04-46.53c2.22-8.32,8.77-14.87,17.09-17.09C89.54,82.33,150,82.33,150,82.33
		s60.46,0,75.53,4.04c8.32,2.22,14.87,8.77,17.09,17.09c4.04,15.08,4.04,46.53,4.04,46.53S246.67,181.46,242.63,196.53z"/>
</g>
</svg>
